<?xml version="1.0" standalone="no"?>
<!DOCTYPE svg PUBLIC "-//W3C//DTD SVG 20010904//EN"
 "http://www.w3.org/TR/2001/REC-SVG-20010904/DTD/svg10.dtd">
<svg version="1.0" xmlns="http://www.w3.org/2000/svg"
 width="295.000000pt" height="241.000000pt" viewBox="0 0 295.000000 241.000000"
 preserveAspectRatio="xMidYMid meet">

<g transform="translate(0.000000,241.000000) scale(0.100000,-0.100000)"
fill="#000000" stroke="none">
<path d="M1245 2279 c-445 -64 -810 -397 -926 -846 -19 -75 -23 -114 -23 -263
0 -159 2 -184 27 -280 63 -242 226 -488 412 -625 22 -17 42 -32 45 -35 31 -34
213 -124 320 -159 91 -31 278 -61 370 -61 111 0 295 34 402 74 85 32 208 92
208 101 0 3 -35 -11 -79 -29 -142 -61 -267 -88 -438 -93 -154 -5 -235 3 -343
34 l-55 17 75 23 c163 52 345 92 580 128 180 27 395 45 534 45 60 0 107 2 104
5 -11 11 -321 35 -458 35 -184 0 -449 -27 -585 -60 -63 -15 -65 -14 -65 35 0
34 5 47 20 55 85 46 84 275 -2 444 l-20 39 -22 -39 c-12 -22 -28 -59 -35 -84
-7 -25 -17 -58 -22 -74 -14 -45 -10 -96 11 -160 11 -33 20 -71 20 -85 0 -15 8
-31 20 -39 16 -9 20 -23 20 -61 0 -48 0 -49 -36 -56 -20 -3 -94 -25 -165 -49
l-128 -42 -35 18 c-20 10 -36 21 -36 24 0 3 7 1 16 -4 11 -6 36 -2 78 13 l61
22 3 631 c1 348 0 632 -3 632 -2 0 -66 -44 -142 -98 -76 -54 -157 -111 -180
-127 l-42 -30 -1 -68 c0 -79 -18 -82 157 25 150 91 143 90 143 35 0 -40 -4
-47 -27 -59 -16 -8 -98 -52 -183 -99 -139 -76 -152 -84 -122 -87 31 -3 32 -4
32 -53 0 -27 2 -49 4 -49 2 0 68 32 145 70 78 39 144 70 146 70 3 0 5 -20 5
-44 l0 -44 -105 -46 c-57 -25 -138 -60 -180 -77 -79 -34 -94 -49 -46 -49 29 0
30 -2 33 -49 l3 -49 130 49 c72 27 138 52 148 55 14 5 17 -1 17 -39 0 -39 -3
-46 -27 -55 -27 -10 -210 -67 -300 -93 -47 -13 -48 -29 -2 -29 l29 0 0 -97 0
-98 58 -46 c31 -25 76 -59 100 -74 23 -15 40 -30 38 -33 -9 -8 -140 91 -214
162 -169 162 -278 361 -327 596 -18 83 -20 298 -4 386 26 149 109 344 192 456
194 259 447 404 768 440 102 11 231 5 339 -17 14 -3 6 2 -18 10 -98 32 -284
43 -417 24z"/>
<path d="M1368 1879 l-208 -140 0 -123 0 -123 145 -87 144 -88 4 -306 c2 -186
8 -336 16 -380 9 -56 10 -87 1 -135 -6 -34 -14 -83 -17 -109 l-5 -48 29 6 c15
3 51 8 78 12 l50 7 3 758 c1 416 5 757 10 757 4 0 60 -43 125 -96 l117 -95 0
-650 0 -649 35 0 35 0 0 678 -1 677 -169 135 c-93 74 -172 136 -177 137 -4 2
-101 -60 -215 -138z"/>
<path d="M1712 1605 c3 -52 6 -60 36 -83 l33 -25 -3 58 c-3 52 -6 60 -36 83
l-33 25 3 -58z"/>
<path d="M1710 1361 c0 -43 4 -53 33 -77 l32 -27 3 54 c3 49 1 56 -25 76 -15
13 -31 23 -35 23 -5 0 -8 -22 -8 -49z"/>
<path d="M1710 1120 c0 -43 4 -55 28 -75 15 -13 30 -25 35 -25 4 0 7 24 7 53
0 47 -3 56 -30 75 -16 12 -32 22 -35 22 -3 0 -5 -23 -5 -50z"/>
<path d="M1710 876 c0 -50 3 -56 35 -80 l35 -27 0 58 c0 55 -2 59 -35 81 l-35
22 0 -54z"/>
<path d="M1203 523 c-7 -16 -17 -51 -23 -80 -21 -95 21 -174 64 -121 15 19 18
34 13 93 -4 55 -28 135 -40 135 -1 0 -8 -12 -14 -27z"/>
</g>
</svg>
